<?xml version="1.0" encoding="UTF-8" standalone="no"?>
<svg
   width="32"
   height="32"
   version="1.1"
   xmlns="http://www.w3.org/2000/svg"
   xml:space="preserve">
  <path
     fill="#ff443a"
     d="m 9.8045196,18.508794 -1.898269,-1.893213 -0.7384037,0.736717 1.9303014,1.925244 0.6557955,0.65411 1.0013972,0.99971 0.741774,-0.73503 -1.003082,-1.001397 -0.6895134,-0.687828 z M 6.4395593,20.07495 c -2.3939105,0 -4.0426735,-1.807233 -4.0426735,-4.201143 0,-2.39391 1.648763,-4.201143 4.0426735,-4.201143 2.39391,0 4.0426727,1.807233 4.0426727,4.201143 0,0.60522 -0.107895,1.17841 -0.305139,1.689224 l 0.733345,0.731659 c 0.377631,-0.716487 0.586677,-1.545926 0.586677,-2.420883 0,-2.795143 -2.1208017,-5.057557 -5.0575557,-5.057557 -2.9367546,0 -5.0575563,2.262414 -5.0575563,5.057557 0,2.795142 2.1208017,5.057555 5.0575563,5.057555 0.8935015,0 1.7094536,-0.210731 2.4141395,-0.581618 L 8.1995892,19.697319 C 7.6786602,19.938396 7.0869259,20.07495 6.4395593,20.07495 Z M 19.926375,10.984836 h 1.011511 v 9.777942 h -1.424544 l -5.487449,-8.520297 v 8.520297 h -1.011511 v -9.777942 h 1.419487 l 5.492506,8.521981 z m 8.309565,6.522561 -1.161552,-1.635276 1.161552,-1.635277 2.307931,-3.252008 H 29.301398 L 27.706582,13.23039 26.24832,15.285444 24.790057,13.23039 23.195242,10.984836 H 21.95277 l 2.30793,3.252008 1.161553,1.635277 -1.161553,1.635276 -2.311303,3.255381 h 1.242473 l 1.598187,-2.250613 1.458263,-2.055054 1.458262,2.055054 1.598188,2.250613 h 1.242472 z" />
</svg>
